<svg width="144" height="51" viewBox="0 0 144 51" fill="none" xmlns="http://www.w3.org/2000/svg">
<path fill-rule="evenodd" clip-rule="evenodd" d="M33.8875 44.4064C38.1919 42.2851 41.6611 38.7423 43.7281 34.3571C45.7951 29.9719 46.3376 25.0037 45.2671 20.2644C44.1965 15.5252 41.5762 11.2952 37.8343 8.26596C34.0924 5.23668 29.4504 3.58724 24.6669 3.58724C19.8834 3.58724 15.2413 5.23668 11.4995 8.26596C7.75759 11.2952 5.13724 15.5252 4.06669 20.2644C2.99613 25.0037 3.5387 29.9719 5.6057 34.3571C7.6727 38.7423 11.1419 42.2851 15.4462 44.4064L15.8287 44.5978L14.899 48.1209L14.3459 47.8517C9.23759 45.4595 5.08691 41.3646 2.58186 36.2458C0.0768024 31.127 -0.632191 25.2917 0.572403 19.7071C1.777 14.1226 4.82284 9.12414 9.20504 5.54043C13.5872 1.95672 19.0426 0.00292969 24.6669 0.00292969C30.2911 0.00292969 35.7465 1.95672 40.1287 5.54043C44.5109 9.12414 47.5568 14.1226 48.7614 19.7071C49.966 25.2917 49.257 31.127 46.7519 36.2458C44.2468 41.3646 40.0962 45.4595 34.9879 47.8517L34.4348 48.1089L33.5051 44.5918L33.8875 44.4064Z" fill="#186190"/>
<path fill-rule="evenodd" clip-rule="evenodd" d="M26.3557 46.4823C28.1781 46.3364 29.9741 45.9503 31.6986 45.3339L32.2223 45.1424L33.1402 48.6357L32.6871 48.7912C27.5752 50.573 22.0296 50.6024 16.8996 48.8749L16.4407 48.7254L17.3586 45.2381L17.8764 45.4176C19.5269 45.9866 21.2406 46.3443 22.9781 46.4823V39.9026C21.4405 39.5876 20.0144 38.8585 18.8489 37.7915C17.6833 36.7245 16.8211 35.3589 16.3524 33.8373C16.2002 33.358 16.0919 32.8654 16.0288 32.3659C15.9812 31.993 15.9577 31.6173 15.9582 31.2413V28.6214L23.237 23.6328L24.6669 22.6518L29.5508 26.0015L30.0098 25.7204V17.089C30.0336 16.3626 29.9133 15.6387 29.6562 14.9605C29.3992 14.2823 29.0105 13.6636 28.5134 13.1412C28.0163 12.6188 27.4209 12.2033 26.7626 11.9196C26.1043 11.6359 25.3966 11.4897 24.6816 11.4897C23.9666 11.4897 23.2589 11.6359 22.6006 11.9196C21.9423 12.2033 21.3469 12.6188 20.8498 13.1412C20.3527 13.6636 19.964 14.2823 19.7069 14.9605C19.4499 15.6387 19.3296 16.3626 19.3534 17.089V25.0684L15.9758 27.3832V17.089C15.9758 15.9265 16.2011 14.7753 16.6387 13.7012C17.0764 12.6272 17.7179 11.6513 18.5265 10.8292C19.3352 10.0072 20.2953 9.35509 21.3518 8.9102C22.4084 8.46531 23.5409 8.23633 24.6845 8.23633C25.8282 8.23633 26.9606 8.46531 28.0172 8.9102C29.0738 9.35509 30.0339 10.0072 30.8425 10.8292C31.6512 11.6513 32.2927 12.6272 32.7303 13.7012C33.168 14.7753 33.3933 15.9265 33.3933 17.089V23.3816L34.9408 22.3229L36.1177 21.5333L35.1056 19.9721L41.8607 19.5594L38.7891 25.7204L37.777 24.1652L30.7924 28.9504L29.5508 29.8058L27.8679 28.6513L24.6669 26.4561L19.3357 30.1108V31.2234C19.3369 31.5402 19.3645 31.8564 19.4181 32.1685C19.6093 33.2335 20.1083 34.2165 20.8513 34.992C21.5943 35.7676 22.5478 36.3006 23.5901 36.523C24.2982 36.6746 25.0297 36.6746 25.7378 36.523C26.9414 36.2727 28.0234 35.6084 28.8015 34.6421C29.5796 33.6757 30.0063 32.4662 30.0098 31.2174V30.7329L33.3933 28.4181V31.2174C33.3856 33.2674 32.6807 35.2517 31.398 36.8336C30.1153 38.4155 28.3338 39.4977 26.3557 39.8966V46.4823Z" fill="#24AAE0"/>
<path fill-rule="evenodd" clip-rule="evenodd" d="M77.8607 28.5314C78.8944 29.4965 80.2467 30.0321 81.6502 30.0321C83.0537 30.0321 84.406 29.4965 85.4397 28.5314C85.9252 28.0152 86.3035 27.4049 86.5522 26.737C86.8009 26.069 86.9148 25.357 86.8872 24.6434C86.9145 23.9298 86.8004 23.2179 86.5517 22.55C86.3031 21.8821 85.9249 21.2718 85.4397 20.7554C84.406 19.7903 83.0537 19.2547 81.6502 19.2547C80.2467 19.2547 78.8944 19.7903 77.8607 20.7554C77.3755 21.2718 76.9973 21.8821 76.7487 22.55C76.5 23.2179 76.3859 23.9298 76.4132 24.6434C76.3856 25.357 76.4995 26.069 76.7482 26.737C76.9969 27.4049 77.3752 28.0152 77.8607 28.5314ZM87.864 18.4824C88.6634 19.2845 89.2913 20.2457 89.7085 21.3058C90.1256 22.3659 90.323 23.5022 90.2883 24.6434C90.3241 25.7848 90.1272 26.9213 89.71 27.9816C89.2928 29.0419 88.6643 30.003 87.864 30.8044C86.1583 32.3672 83.9435 33.2321 81.6473 33.2321C79.351 33.2321 77.1362 32.3672 75.4305 30.8044C74.6314 30.0021 74.0037 29.0409 73.5865 27.9808C73.1694 26.9207 72.9718 25.7846 73.0062 24.6434C72.9729 23.5023 73.171 22.3665 73.588 21.3066C74.0051 20.2467 74.6323 19.2854 75.4305 18.4824C77.1362 16.9196 79.351 16.0547 81.6473 16.0547C83.9435 16.0547 86.1583 16.9196 87.864 18.4824Z" fill="#24AAE0"/>
<path fill-rule="evenodd" clip-rule="evenodd" d="M122.34 25.0023V16.4727H125.718V25.0023C125.718 27.2514 125.194 29.4765 123.558 31.0975C121.922 32.7185 119.939 33.2329 117.774 33.2329C116.718 33.2829 115.663 33.1205 114.67 32.7551C113.676 32.3897 112.763 31.8284 111.984 31.1035C110.348 29.4885 109.83 27.2394 109.83 24.9904V16.4727H113.208V25.0023C113.116 26.3691 113.555 27.718 114.432 28.7587C115.358 29.58 116.545 30.0325 117.774 30.0325C119.003 30.0325 120.19 29.58 121.116 28.7587C121.992 27.718 122.432 26.3691 122.34 25.0023Z" fill="#186190"/>
<path fill-rule="evenodd" clip-rule="evenodd" d="M141.576 18.4824C142.374 19.2854 143.001 20.2467 143.418 21.3066C143.835 22.3665 144.033 23.5023 144 24.6434C144.034 25.7846 143.837 26.9207 143.42 27.9808C143.003 29.0409 142.375 30.0021 141.576 30.8044C140.751 31.6165 139.774 32.2504 138.702 32.6678C137.63 33.0852 136.485 33.2774 135.338 33.2329C133.913 33.2504 132.503 32.9309 131.219 32.2998V28.1127C131.331 28.2503 131.449 28.3878 131.572 28.5194C132.607 29.485 133.96 30.0207 135.365 30.0207C136.769 30.0207 138.123 29.485 139.157 28.5194C139.643 28.0032 140.021 27.393 140.27 26.725C140.518 26.0571 140.632 25.3451 140.605 24.6314C140.632 23.9178 140.518 23.2059 140.269 22.538C140.021 21.8701 139.642 21.2599 139.157 20.7434C138.123 19.7779 136.769 19.2422 135.365 19.2422C133.96 19.2422 132.607 19.7779 131.572 20.7434C130.612 21.7969 130.084 23.1833 130.095 24.6195V39.6391H126.724V24.2905C126.732 23.2083 126.949 22.1384 127.364 21.1418C127.779 20.1452 128.383 19.2416 129.142 18.4824C130.848 16.9196 133.063 16.0547 135.359 16.0547C137.655 16.0547 139.87 16.9196 141.576 18.4824Z" fill="#186190"/>
<path fill-rule="evenodd" clip-rule="evenodd" d="M69.5521 18.4824C70.3504 19.2854 70.9776 20.2467 71.3946 21.3066C71.8117 22.3665 72.0097 23.5023 71.9765 24.6434C72.0108 25.7846 71.8132 26.9207 71.3961 27.9808C70.979 29.0409 70.3512 30.0021 69.5521 30.8044C68.7298 31.6143 67.755 32.2469 66.6862 32.6642C65.6174 33.0815 64.4766 33.275 63.3324 33.2329C61.9083 33.256 60.4983 32.9427 59.2135 32.3177V28.1127C59.3253 28.2503 59.4371 28.3878 59.5665 28.5194C60.6011 29.485 61.9545 30.0207 63.3589 30.0207C64.7634 30.0207 66.1168 29.485 67.1513 28.5194C67.6361 28.0029 68.0135 27.3925 68.2612 26.7245C68.5089 26.0565 68.6217 25.3447 68.593 24.6314C68.6214 23.9182 68.5084 23.2065 68.2607 22.5386C68.0131 21.8706 67.6358 21.2602 67.1513 20.7434C66.1168 19.7779 64.7634 19.2422 63.3589 19.2422C61.9545 19.2422 60.6011 19.7779 59.5665 20.7434C58.6062 21.7969 58.0779 23.1833 58.0896 24.6195V39.6391H54.7238V24.2905C54.7318 23.2083 54.9495 22.1384 55.3644 21.1418C55.7794 20.1452 56.3835 19.2416 57.1422 18.4824C58.8478 16.9196 61.0627 16.0547 63.3589 16.0547C65.6552 16.0547 67.87 16.9196 69.5757 18.4824" fill="#24AAE0"/>
<path fill-rule="evenodd" clip-rule="evenodd" d="M93.7189 30.8044C92.9197 30.0021 92.292 29.0408 91.8749 27.9808C91.4577 26.9207 91.2602 25.7846 91.2945 24.6434C91.2612 23.5023 91.4593 22.3665 91.8764 21.3066C92.2934 20.2467 92.9206 19.2853 93.7189 18.4824C94.5415 17.6731 95.5164 17.0408 96.5851 16.6235C97.6539 16.2063 98.7944 16.0125 99.9385 16.0539C101.362 16.0332 102.772 16.3463 104.058 16.969V21.1561C103.948 21.0134 103.83 20.8776 103.704 20.7494C102.671 19.7843 101.318 19.2487 99.915 19.2487C98.5115 19.2487 97.1592 19.7843 96.1255 20.7494C95.6403 21.2658 95.2621 21.8761 95.0135 22.544C94.7648 23.2119 94.6507 23.9238 94.678 24.6374C94.6504 25.351 94.7643 26.063 95.013 26.731C95.2617 27.3989 95.64 28.0092 96.1255 28.5254C97.1592 29.4905 98.5115 30.026 99.915 30.026C101.318 30.026 102.671 29.4905 103.704 28.5254C104.666 27.4751 105.195 26.09 105.181 24.6553V12.7281H103.081L106.805 6.14844L110.53 12.7281H108.559V24.9963C108.552 26.0785 108.334 27.1487 107.919 28.1453C107.504 29.142 106.9 30.0456 106.141 30.8044C104.434 32.3676 102.218 33.2327 99.9209 33.2327C97.6236 33.2327 95.4078 32.3676 93.7012 30.8044" fill="#24AAE0"/>
</svg>
